<?xml version="1.0" encoding="UTF-8"?>
<!-- Generator: Adobe Illustrator 23.0.1, SVG Export Plug-In . SVG Version: 6.00 Build 0)  -->
<!DOCTYPE svg PUBLIC "-//W3C//DTD SVG 1.1//EN" "http://www.w3.org/Graphics/SVG/1.1/DTD/svg11.dtd">
<svg version="1.1" id="Livello_1" xmlns:x="http://ns.adobe.com/Extensibility/1.0/" xmlns:i="http://ns.adobe.com/AdobeIllustrator/10.0/" xmlns:graph="http://ns.adobe.com/Graphs/1.0/" xmlns="http://www.w3.org/2000/svg" xmlns:xlink="http://www.w3.org/1999/xlink" x="0px" y="0px" viewBox="0 0 500 500" style="enable-background:new 0 0 500 500;" xml:space="preserve">
<style type="text/css">
	.s-green{fill-rule:evenodd;clip-rule:evenodd;fill:#008D4F;}
	.white{fill-rule:evenodd;clip-rule:evenodd;fill:#FFFFFF;}
</style>
<metadata>
	<sfw xmlns="http://ns.adobe.com/SaveForWeb/1.0/">
		<slices/>
		<sliceSourceBounds bottomLeftOrigin="true" height="500" width="500" x="0" y="0"/>
	</sfw>
</metadata>
<g>
	<path class="s-green" d="M500,250C500,112.1,387.9,0,250,0C112.1,0,0,112.1,0,250c0,137.9,112.1,250,250,250   C387.9,500,500,387.9,500,250"/>
	<path class="white" d="M414.1,316.5c0,60.6-58.8,131.1-157.8,131.1c-55.2,0-118.9-24.8-153.7-56v-78.7c33,47.5,93.1,84.1,153.7,84.1   c37.1,0,66.9-21.2,66.9-43.9c0-85.4-223.8-32.6-223.8-179.9c0-77.3,75.5-118.9,143.3-118.9c56.5,0,107.1,18.5,147.4,49.7v65.6   C355.3,132,302.9,99,241.4,99c-34.8,0-54.7,18.5-54.7,40.2C186.7,230.6,414.1,166.4,414.1,316.5"/>
</g>
</svg>